name C:\Users\u0101727\Documents\MyRepositories\predictivesimulations\OpenSimModel\subject1\EMG\EMG_gait_15.mot
datacolumns 25
datarows 19
range 1.35800000 1.37600000
endheader
time	HamL_r	TA_r	PerL_r	GL_r	HamM_r	Sol_r	VL_r	VM_r	PerB_l	TA_l	PerL_l	GL_l	GM_l	Sol_l	VL_l	VM_l	AddL_l	RF_l	TFL_l	GluMed_l	HamL_l	HamM_l	GluMed_r	RF_r	
          1.35800000	          0.00533009	          0.00299336	          0.02883412	          0.00455558	          0.02685270	          0.05254239	          0.01096832	          0.00406678	          0.02676143	          0.06014818	          0.02416972	          0.01186526	          0.01343380	          0.01732260	          0.00433681	          0.00415001	          0.00604234	          0.00548620	          0.01257450	          0.00698050	          0.00685853	          0.00463907	          0.04526664	          0.00656140	
          1.35900000	          0.00530888	          0.00300449	          0.02938197	          0.00453530	          0.02674559	          0.05259546	          0.01066355	          0.00408753	          0.02642026	          0.05949451	          0.02380642	          0.01179310	          0.01327045	          0.01709712	          0.00429822	          0.00414518	          0.00608915	          0.00545362	          0.01232891	          0.00691615	          0.00683190	          0.00467551	          0.04556772	          0.00655555	
          1.36000000	          0.00528760	          0.00301930	          0.02993526	          0.00451457	          0.02664799	          0.05263473	          0.01036722	          0.00410774	          0.02605460	          0.05886368	          0.02342789	          0.01171740	          0.01310796	          0.01686699	          0.00426133	          0.00414023	          0.00613715	          0.00542649	          0.01208278	          0.00684992	          0.00680458	          0.00471294	          0.04586524	          0.00654975	
          1.36100000	          0.00526653	          0.00303764	          0.03049279	          0.00449349	          0.02655796	          0.05266135	          0.01007993	          0.00412734	          0.02566717	          0.05825785	          0.02303511	          0.01163826	          0.01294634	          0.01663280	          0.00422623	          0.00413517	          0.00618624	          0.00540447	          0.01183704	          0.00678221	          0.00677635	          0.00475127	          0.04616013	          0.00654405	
          1.36200000	          0.00524592	          0.00305936	          0.03105343	          0.00447214	          0.02647377	          0.05267672	          0.00980213	          0.00414630	          0.02526092	          0.05767905	          0.02262934	          0.01155574	          0.01278555	          0.01639513	          0.00419300	          0.00413002	          0.00623631	          0.00538725	          0.01159258	          0.00671341	          0.00674694	          0.00479039	          0.04645289	          0.00653843	
          1.36300000	          0.00522601	          0.00308430	          0.03161613	          0.00445058	          0.02639408	          0.05268258	          0.00953414	          0.00416468	          0.02483880	          0.05712897	          0.02221225	          0.01146990	          0.01262552	          0.01615440	          0.00416166	          0.00412477	          0.00628723	          0.00537449	          0.01135021	          0.00664387	          0.00671608	          0.00483012	          0.04674360	          0.00653282	
          1.36400000	          0.00520703	          0.00311225	          0.03218005	          0.00442881	          0.02631807	          0.05268072	          0.00927617	          0.00418259	          0.02440365	          0.05660887	          0.02178578	          0.01138080	          0.01246627	          0.01591093	          0.00413221	          0.00411943	          0.00633885	          0.00536588	          0.01111067	          0.00657392	          0.00668362	          0.00487028	          0.04703193	          0.00652709	
          1.36500000	          0.00518917	          0.00314300	          0.03274450	          0.00440678	          0.02624530	          0.05267258	          0.00902831	          0.00420014	          0.02395829	          0.05611960	          0.02135192	          0.01128850	          0.01230789	          0.01566497	          0.00410461	          0.00411397	          0.00639099	          0.00536108	          0.01087465	          0.00650387	          0.00664944	          0.00491063	          0.04731728	          0.00652101	
          1.36600000	          0.00517258	          0.00317631	          0.03330874	          0.00438437	          0.02617557	          0.05265912	          0.00879061	          0.00421746	          0.02350560	          0.05566167	          0.02091268	          0.01119313	          0.01215062	          0.01541681	          0.00407880	          0.00410836	          0.00644340	          0.00535975	          0.01064283	          0.00643397	          0.00661341	          0.00495092	          0.04759882	          0.00651433	
          1.36700000	          0.00515739	          0.00321190	          0.03387198	          0.00436144	          0.02610901	          0.05264099	          0.00856300	          0.00423462	          0.02304839	          0.05523530	          0.02046991	          0.01109488	          0.01199486	          0.01516695	          0.00405466	          0.00410257	          0.00649579	          0.00536149	          0.01041577	          0.00636450	          0.00657539	          0.00499093	          0.04787574	          0.00650681	
          1.36800000	          0.00514365	          0.00324950	          0.03443352	          0.00433782	          0.02604621	          0.05261873	          0.00834536	          0.00425167	          0.02258924	          0.05484021	          0.02002535	          0.01099410	          0.01184119	          0.01491611	          0.00403210	          0.00409655	          0.00654782	          0.00536586	          0.01019398	          0.00629578	          0.00653520	          0.00503049	          0.04814745	          0.00649824	
          1.36900000	          0.00513139	          0.00328884	          0.03499285	          0.00431335	          0.02598807	          0.05259262	          0.00813752	          0.00426859	          0.02213042	          0.05447563	          0.01958058	          0.01089118	          0.01169023	          0.01466517	          0.00401098	          0.00409023	          0.00659915	          0.00537240	          0.00997784	          0.00622809	          0.00649266	          0.00506949	          0.04841379	          0.00648844	
          1.37000000	          0.00512060	          0.00332965	          0.03554954	          0.00428793	          0.02593559	          0.05256247	          0.00793922	          0.00428535	          0.02167391	          0.05414048	          0.01913705	          0.01078654	          0.01154257	          0.01441500	          0.00399118	          0.00408355	          0.00664946	          0.00538063	          0.00976761	          0.00616171	          0.00644758	          0.00510786	          0.04867493	          0.00647727	
          1.37100000	          0.00511125	          0.00337170	          0.03610323	          0.00426150	          0.02588991	          0.05252743	          0.00775018	          0.00430187	          0.02122138	          0.05383371	          0.01869608	          0.01068054	          0.01139874	          0.01416647	          0.00397263	          0.00407647	          0.00669844	          0.00539010	          0.00956348	          0.00609685	          0.00639977	          0.00514557	          0.04893120	          0.00646459	
          1.37200000	          0.00510330	          0.00341475	          0.03665359	          0.00423405	          0.02585238	          0.05248601	          0.00757011	          0.00431804	          0.02077430	          0.05355418	          0.01825886	          0.01057348	          0.01125922	          0.01392045	          0.00395527	          0.00406891	          0.00674582	          0.00540044	          0.00936559	          0.00603364	          0.00634915	          0.00518261	          0.04918283	          0.00645024	
          1.37300000	          0.00509668	          0.00345857	          0.03720025	          0.00420556	          0.02582460	          0.05243609	          0.00739870	          0.00433370	          0.02033390	          0.05330045	          0.01782651	          0.01046562	          0.01112443	          0.01367777	          0.00393903	          0.00406075	          0.00679131	          0.00541134	          0.00917403	          0.00597217	          0.00629571	          0.00521890	          0.04942997	          0.00643409	
          1.37400000	          0.00509133	          0.00350292	          0.03774268	          0.00417598	          0.02580823	          0.05237513	          0.00723576	          0.00434869	          0.01990127	          0.05307076	          0.01740009	          0.01035719	          0.01099473	          0.01343921	          0.00392382	          0.00405189	          0.00683469	          0.00542260	          0.00898888	          0.00591244	          0.00623955	          0.00525436	          0.04967251	          0.00641605	
          1.37500000	          0.00508719	          0.00354755	          0.03828017	          0.00414525	          0.02580481	          0.05230046	          0.00708112	          0.00436289	          0.01947732	          0.05286329	          0.01698065	          0.01024844	          0.01087041	          0.01320547	          0.00390955	          0.00404218	          0.00687580	          0.00543410	          0.00881018	          0.00585439	          0.00618089	          0.00528893	          0.04990993	          0.00639615	
          1.37600000	          0.00508419	          0.00359224	          0.03881186	          0.00411328	          0.02581567	          0.05220989	          0.00693466	          0.00437620	          0.01906290	          0.05267641	          0.01656928	          0.01013959	          0.01075167	          0.01297716	          0.00389616	          0.00403152	          0.00691454	          0.00544584	          0.00863797	          0.00579792	          0.00611999	          0.00532253	          0.05014109	          0.00637442	
